<?xml version="1.0" encoding="UTF-8"?>
<svg width="204.77mm" height="65.406mm" version="1.1" viewBox="0 0 204.77 65.406" xml:space="preserve" preserveAspectRatio="none" xmlns="http://www.w3.org/2000/svg" xmlns:xlink="http://www.w3.org/1999/xlink"><defs><marker id="g" overflow="visible" markerHeight="0.40000001" markerWidth="0.40000001" orient="auto-start-reverse" preserveAspectRatio="xMidYMid" viewBox="0 0 1 1"><path transform="scale(.5)" d="m5.77 0-8.65 5v-10z" fill="context-stroke" fill-rule="evenodd" stroke="context-stroke" stroke-width="1pt"/></marker><linearGradient id="a"><stop stop-color="#acbfe5" offset="0"/><stop stop-color="#fe7c7c" offset="1"/></linearGradient><linearGradient id="c" x1="2.0678" x2="207.23" y1="36.609" y2="36.609" gradientTransform="translate(.37062 -.39645)" gradientUnits="userSpaceOnUse" xlink:href="#a"/><linearGradient id="b" x1="2.0678" x2="207.23" y1="36.609" y2="36.609" gradientTransform="matrix(1 0 0 -1 .37062 72.821)" gradientUnits="userSpaceOnUse" xlink:href="#a"/><marker id="f" overflow="visible" markerHeight="0.40000001" markerWidth="0.40000001" orient="auto-start-reverse" preserveAspectRatio="xMidYMid" viewBox="0 0 1 1"><path transform="scale(.5)" d="m5.77 0-8.65 5v-10z" fill="context-stroke" fill-rule="evenodd" stroke="context-stroke" stroke-width="1pt"/></marker><marker id="e" overflow="visible" markerHeight="0.40000001" markerWidth="0.40000001" orient="auto-start-reverse" preserveAspectRatio="xMidYMid" viewBox="0 0 1 1"><path transform="scale(.5)" d="m5.77 0-8.65 5v-10z" fill="context-stroke" fill-rule="evenodd" stroke="context-stroke" stroke-width="1pt"/></marker><marker id="d" overflow="visible" markerHeight="0.40000001" markerWidth="0.40000001" orient="auto-start-reverse" preserveAspectRatio="xMidYMid" viewBox="0 0 1 1"><path transform="scale(.5)" d="m5.77 0-8.65 5v-10z" fill="context-stroke" fill-rule="evenodd" stroke="context-stroke" stroke-width="1pt"/></marker></defs><g transform="translate(-2.6384 -3.5095)"><path d="m2.9384 3.8095v15.423h39.455l122.23 49.383h42.484v-15.443h-39.454l-122.18-49.363z" fill="url(#c)" stroke="#000" stroke-width=".6"/><path d="m2.9384 68.615v-15.423h39.455l122.23-49.383h42.484v15.443h-39.454l-122.18 49.363z" fill="url(#b)" stroke="#000" stroke-width=".6"/><path d="m8.3814 11.533h13.271" fill="#fff" marker-end="url(#g)" stroke="#fff" stroke-miterlimit="2" stroke-width="3"/><path d="m24.855 61.035h-13.271" fill="#fff" marker-end="url(#f)" stroke="#fff" stroke-miterlimit="2" stroke-width="3"/><path d="m201.89 11.533h-13.271" fill="#fff" marker-end="url(#d)" stroke="#fff" stroke-miterlimit="2" stroke-width="3"/><path d="m185.41 61.035h13.271" fill="#fff" marker-end="url(#e)" stroke="#fff" stroke-miterlimit="2" stroke-width="3"/></g></svg>
