<?xml version="1.0" encoding="UTF-8"?>
<svg width="204.77mm" height="65.406mm" preserveAspectRatio="none" version="1.1" viewBox="0 0 204.77 65.406" xml:space="preserve" xmlns="http://www.w3.org/2000/svg" xmlns:xlink="http://www.w3.org/1999/xlink"><path d="m0.3 0.3v15.423h39.455l122.23 49.383h42.484v-15.443h-39.454l-122.18-49.363z" fill="#acbfe5" stroke="#000" stroke-width=".6"/><path d="m0.3 65.106v-15.423h39.455l122.23-49.383h42.484v15.443h-39.454l-122.18 49.363z" fill="#fe7c7c" stroke="#000" stroke-width=".6"/><path d="m16.108 4.4889v1.9255h-11.404v3.407h11.404v1.9255l4.4995-3.6292z" fill="#fff"/><path d="m195.59 53.822v1.9255h-11.404v3.407h11.404v1.9255l4.4995-3.6292z" fill="#fff"/><path d="m188.68 4.4889v1.9255h11.404v3.407h-11.404v1.9255l-4.4995-3.6292z" fill="#fff"/><path d="m9.2026 53.822v1.9255h11.404v3.407h-11.404v1.9255l-4.4995-3.6292z" fill="#fff"/></svg>
