<?xml version="1.0" encoding="UTF-8"?>
<svg width="204.77mm" height="65.406mm" version="1.1" viewBox="0 0 204.77 65.406" xml:space="preserve" preserveAspectRatio="none" xmlns="http://www.w3.org/2000/svg" xmlns:xlink="http://www.w3.org/1999/xlink"><defs><linearGradient id="a"><stop stop-color="#acbfe5" offset="0"/><stop stop-color="#fe7c7c" offset="1"/></linearGradient><linearGradient id="c" x1="2.0678" x2="207.23" y1="36.609" y2="36.609" gradientTransform="translate(.37062 -.39645)" gradientUnits="userSpaceOnUse" xlink:href="#a"/><linearGradient id="b" x1="2.0678" x2="207.23" y1="36.609" y2="36.609" gradientTransform="matrix(1 0 0 -1 .37062 72.821)" gradientUnits="userSpaceOnUse" xlink:href="#a"/></defs><g transform="translate(-2.6384 -3.5095)"><path d="m2.9384 3.8095v15.423h39.455l122.23 49.383h42.484v-15.443h-39.454l-122.18-49.363z" fill="url(#c)" stroke="#000" stroke-width=".6"/><path d="m2.9384 68.615v-15.423h39.455l122.23-49.383h42.484v15.443h-39.454l-122.18 49.363z" fill="url(#b)" stroke="#000" stroke-width=".6"/><path d="m18.746 7.9984v1.9255h-11.404v3.407h11.404v1.9255l4.4995-3.6292z" fill="#fff"/><path d="m198.23 57.332v1.9255h-11.404v3.407h11.404v1.9255l4.4995-3.6292z" fill="#fff"/><path d="m191.32 7.9984v1.9255h11.404v3.407h-11.404v1.9255l-4.4995-3.6292z" fill="#fff"/><path d="m11.841 57.332v1.9255h11.404v3.407h-11.404v1.9255l-4.4995-3.6292z" fill="#fff"/></g></svg>
